<svg xmlns="http://www.w3.org/2000/svg" viewBox="0 0 323.9 136.7"><g fill="#FF151B"><path fill-rule="evenodd" clip-rule="evenodd" d="M105.7 111c.9.6 1.6 1.6 1.6 2.8 0 1.8-1.5 3.2-3.2 3.2-.6 0-1.2-.2-1.8-.5-15.7-8.6-48.1-38.8-64.3-63.6-.2.5-.2 1-.3 1.4 17.8 28.2 52.1 56.2 63.6 63.8 1 .6 1.6 1.6 1.6 2.8 0 1.8-1.4 3.2-3.2 3.2-.6 0-1.2-.2-1.7-.5-12.7-7.2-39.2-28.9-62.2-59.4-.1.6-.1 1.1-.2 1.4 16.3 22.8 39.1 44.3 61.6 59.4 1 .6 1.6 1.6 1.6 2.8 0 1.8-1.5 3.2-3.2 3.2-.6 0-1.2-.2-1.7-.5-.6-.2-1.1-.6-1.6-.9-21.3-13.7-41.7-33.5-58.1-54C33 82 32.5 95 32.1 101.8c0 1.8-1.5 3.2-3.2 3.2-1.8 0-3.2-1.5-3.2-3.2-1.2-41.8 16.1-85.4 21-94.2v-.1c.5-1.1 1.6-1.8 2.9-1.8 1.8 0 3.2 1.4 3.2 3.2 0 .4-.1.9-.2 1.2-5.7 13.3-9 22-12 33.1.9 1.7 2.1 3.3 3.3 4.9 4.4-4.3 7.9-8.1 12.3-12 .2-.2.5-.5.9-.7.5-.4 1.2-.7 2-.7 1.8 0 3.2 1.5 3.2 3.2 0 .9-.4 1.7-1 2.3-4.5 4.6-9.2 8.7-13.3 13.7.1.4.5.8.7 1.1 6.7-6.9 13.1-13.4 20.5-19.5.6-.5 1.3-.8 2.1-.8 1.8 0 3.2 1.5 3.2 3.2 0 1-.3 1.7-1 2.3-7.4 6.8-14.1 13.1-20.8 20.6 0 .4.5.7.7 1.1 8.9-9.4 17.9-18.3 28-26.1.6-.5 1.3-.8 2.1-.8 1.8 0 3.2 1.5 3.2 3.2 0 1-.5 1.9-1.2 2.5-.6.5-18 14.3-27.9 26.6 28.4 32.1 47.6 43.3 48.1 43.7zm135-105.3c1.8 0 3.2 1.5 3.2 3.2 0 1.8-1.4 3.2-3.2 3.2H223c-1.8 0-3.2-1.5-3.2-3.2 0-1.8 1.5-3.2 3.2-3.2h17.7zm-3.1 7.6c1.8 0 3.2 1.4 3.2 3.2 0 1.8-1.4 3.2-3.2 3.2h-17.7c-1.8 0-3.2-1.4-3.2-3.2 0-1.8 1.5-3.2 3.2-3.2h17.7zm-3.1 7.6c1.8 0 3.2 1.5 3.2 3.2s-1.5 3.2-3.2 3.2h-17.7c-1.8 0-3.2-1.5-3.2-3.2s1.4-3.2 3.2-3.2h17.7zm-27.1 80.9c0 1.8-1.5 3.2-3.2 3.2-1.8 0-3.2-1.4-3.2-3.2-.1-.5-.1-1-.1-1.5.5-21.9 3.5-43.1 9.4-62.9.4-1.4 1.6-2.5 3.1-2.5 1.8 0 3.2 1.5 3.2 3.2 0 .3 0 .5-.1.8-5.4 20.1-8.5 41.2-9.1 62.9z"/><path fill-rule="evenodd" clip-rule="evenodd" d="M215.7 101.8c0 1.8-1.4 3.2-3.2 3.2-1.8 0-3.2-1.4-3.2-3.2-.1-.5-.1-1-.1-1.5.5-21.9 3.5-43.1 9.4-62.9.4-1.4 1.6-2.5 3.1-2.5 1.8 0 3.2 1.5 3.2 3.2 0 .3 0 .5-.1.8-5.4 20.1-8.5 41.2-9.1 62.9z"/><path fill-rule="evenodd" clip-rule="evenodd" d="M224 101.8c0 1.8-1.4 3.2-3.2 3.2-1.8 0-3.2-1.4-3.2-3.2-.1-.5-.1-1-.1-1.5.5-21.9 3.5-43.1 9.4-62.9.4-1.4 1.6-2.5 3.1-2.5 1.8 0 3.2 1.5 3.2 3.2 0 .3 0 .5-.1.8-5.4 20.1-8.5 41.2-9.1 62.9zM34.9 10.2c-12.5 28.1-18.7 58.9-19.5 91.5 0 1.8-1.4 3.2-3.2 3.2-1.8 0-3.2-1.5-3.2-3.2-.1-1 0-2 0-3.1 2.2-40.6 7.5-63 20-91.1.5-1.1 1.6-1.8 2.9-1.8 1.8 0 3.3 1.4 3.3 3.2.1.5-.1.9-.3 1.3zm166.4 33.3c1.8 0 3.2 1.4 3.2 3.2 0 1.8-1.5 3.2-3.2 3.2h-39.8c-1.8 0-3.2-1.4-3.2-3.2 0-1.8 1.5-3.2 3.2-3.2h39.8zm1.7-8c1.8 0 3.2 1.5 3.2 3.2 0 1.8-1.4 3.2-3.2 3.2h-39.8c-1.8 0-3.2-1.5-3.2-3.2 0-1.8 1.4-3.2 3.2-3.2h8.3c2.6-8.2 5.7-17 9.3-25 .5-.9.8-1.9 1.3-2.8.8-1.6 2.7-2.3 4.3-1.6 1.6.8 2.3 2.7 1.6 4.3-3.5 8.1-7 17.1-9.3 25.1h1.7c2.6-8.2 5.7-17 9.3-25.1.5-.9.8-1.9 1.3-2.8.8-1.6 2.7-2.3 4.3-1.6 1.6.8 2.3 2.7 1.6 4.3-3.6 8.1-7.2 17.2-9.3 25.1h1.6c2.6-8.2 5.8-17 9.3-25.1.5-.9.8-1.9 1.3-2.8.8-1.6 2.7-2.3 4.3-1.6 1.6.8 2.3 2.7 1.6 4.3-3.6 8.1-8.2 20.3-9.4 25.1l6.7.2zM166.6 58h-6.7c-1.8 0-3.2-1.4-3.2-3.2 0-1.8 1.5-3.2 3.2-3.2h39.8c1.8 0 3.2 1.5 3.2 3.2 0 1.8-1.4 3.2-3.2 3.2h-9.3c-2.8 14.1-4.4 28.8-4.7 43.8 0 1.8-1.5 3.2-3.2 3.2-1.8 0-3.2-1.5-3.2-3.2-.1-1 .1-2 0-3.1.3-13.9 1.8-27.5 4.4-40.7h-1.6c-2.8 14.1-4.4 28.7-4.7 43.7 0 1.8-1.4 3.2-3.2 3.2-1.8 0-3.2-1.5-3.2-3.2-.1-1 .1-2 0-3.1.3-13.9 1.8-27.5 4.4-40.7h-1.7c-2.8 14.1-4.4 28.7-4.7 43.7 0 1.8-1.4 3.2-3.2 3.2-1.8 0-3.2-1.5-3.2-3.2-.1-1 .1-2 0-3.1-.1-13.7 1.3-27.3 4-40.5z"/><path fill-rule="evenodd" clip-rule="evenodd" d="M43.5 10.2C31 38.3 24.4 69.1 23.7 101.7c0 1.8-1.4 3.2-3.2 3.2-1.8 0-3.2-1.5-3.2-3.2-.1-1 .1-2 0-3.1.6-32.5 7.9-63.1 20.4-91.2.5-1.1 1.6-1.8 2.9-1.8 1.8 0 3.2 1.4 3.2 3.2-.1.6-.1 1-.3 1.4zM311 100c.9-.1 1.5-.8 1.5-1.6 0-.5-.3-1.1-.8-1.4-.5-.3-1.1-.3-1.6-.3h-.9v5.8h.8v-2.4h.3l1.8 2.4h.9l-2-2.5zm-1.1-2.6h.2c.8 0 1.7.1 1.7 1s-.9 1.1-1.6 1.1h-.2v-2.1z"/><path d="M310.7 95.5c2.4 0 4.4 2 4.4 4.4 0 2.4-2 4.4-4.4 4.4-2.4 0-4.4-2-4.4-4.4 0-2.5 1.9-4.4 4.4-4.4"/><path fill-rule="evenodd" clip-rule="evenodd" d="M122.8 82.6c1.1.7 1.6 1.6 1.6 2.8 0 1.8-1.4 3.2-3.2 3.2-8.6.6-16.9-.3-21.8-7.8-3.5-4.7-4.5-12.4-2-18 7.1-14.1 19-11.7 33.3-11.8.3-.3.3-.8.4-1.2-18.2-.5-24.4.2-29.6 5.1-2 1.9-2.8 2.8-4.5 5.6-3.3 6.2-3.1 15.1 1.1 20.8 4.1 6 10.9 9 18.3 8.9 1.8 0 3.2 1.4 3.2 3.2 0 1.8-1.4 3.2-3.2 3.2-1.8.3-3.9-.2-5.6-.1-9.9-1.2-19.2-9.6-21.8-19.1-2.8-10 .2-20.5 7.9-27.4 5.9-5.4 12-8.1 35.7-7.2.3-.3.2-.7.4-1.1-4.8.4-24.1-2.1-33.5 4.6-9.4 6.4-14.5 16.1-13.1 27.4 1 10.2 10.7 23 24.9 24.3 1.8 0 3.3 1.5 3.3 3.2 0 1.8-1.5 3.2-3.2 3.2-16.7-1.5-28.8-15.2-30.9-26.9-3-14.8 3.2-29.4 16.1-37.2 10.7-7.5 24.6-4.6 38-5.5 2.2 0 5.1-.3 6 2.3.3.9 0 1.7 0 2.6-5.3 19.7-8.1 40.5-8.8 62.1 0 1.8-1.4 3.2-3.2 3.2-1.8 0-3.2-1.5-3.2-3.2-.1-15.2 1.6-29.5 4-43.7-12.1.2-10.9-.3-16.7.1-4.2.6-8.6 4.3-9.6 8.5-1.2 5.1.4 10.1 4.7 13.1 3.8 2.9 8.7 2.4 13.5 2.3-.1.1 1 .2 1.5.5"/><path fill-rule="evenodd" clip-rule="evenodd" d="M139.9 101.8c0 1.8-1.5 3.2-3.2 3.2-1.8 0-3.2-1.4-3.2-3.2-.1-.5-.1-1-.1-1.5.5-21.9 3.5-43.1 9.4-62.9.4-1.4 1.6-2.5 3.1-2.5 1.8 0 3.2 1.5 3.2 3.2 0 .3 0 .5-.1.8-5.4 20.1-8.5 41.2-9.1 62.9z"/><path fill-rule="evenodd" clip-rule="evenodd" d="M148.2 101.8c0 1.8-1.4 3.2-3.2 3.2-1.8 0-3.2-1.4-3.2-3.2-.1-.5-.1-1-.1-1.5.5-21.9 3.5-43.1 9.4-62.9.4-1.4 1.6-2.5 3.1-2.5 1.8 0 3.2 1.5 3.2 3.2 0 .3 0 .5-.1.8-5.4 20.1-8.5 41.2-9.1 62.9zM277 82.6c1.1.7 1.6 1.6 1.6 2.8 0 1.8-1.5 3.2-3.2 3.2-8.6.6-16.9-.3-21.8-7.8-3.5-4.7-4.5-12.4-2-18 7.2-14.1 19-11.7 33.3-11.8.3-.3.3-.8.4-1.2-18.3-.4-24.5.2-29.7 5.2-2 1.9-2.8 2.8-4.6 5.6-3.3 6.2-3.1 15.1 1.1 20.8 4.2 6 10.9 9 18.3 8.9 1.8 0 3.2 1.4 3.2 3.2 0 1.8-1.5 3.2-3.2 3.2-1.8.3-3.9-.2-5.6-.1-9.9-1.2-19.2-9.6-21.8-19.1-2.8-10 .2-20.5 7.9-27.4 5.9-5.4 12-8.1 35.7-7.2.3-.3.2-.7.4-1.1-4.8.4-24.1-2.1-33.5 4.6-9.1 6.3-14.2 16.1-12.7 27.3 1 10.2 10.7 23 24.9 24.3 1.8 0 3.3 1.5 3.3 3.2 0 1.8-1.4 3.2-3.2 3.2-16.7-1.5-28.8-15.2-30.9-26.9-3-14.8 3.2-29.4 16.1-37.2 10.7-7.5 24.6-4.6 38-5.5 2.2 0 5.1-.3 6 2.3.3.9 0 1.7 0 2.6-5.3 19.7-8.1 40.5-8.8 62.1 0 1.8-1.5 3.2-3.2 3.2-1.8 0-3.2-1.5-3.2-3.2-.1-15.2 1.6-29.5 4-43.7-12.1.2-10.9-.3-16.7.1-4.2.6-8.7 4.3-9.6 8.5-1.2 5.1.4 10.1 4.7 13.1 3.8 2.9 8.7 2.4 13.5 2.3-.3.1.8.2 1.3.5"/><path fill-rule="evenodd" clip-rule="evenodd" d="M294.1 101.8c0 1.8-1.4 3.2-3.2 3.2s-3.2-1.4-3.2-3.2c-.1-.5-.1-1-.1-1.5.5-21.9 3.5-43.1 9.4-62.9.4-1.4 1.6-2.5 3.1-2.5 1.8 0 3.2 1.5 3.2 3.2 0 .3 0 .5-.1.8-5.4 20.1-8.5 41.2-9.1 62.9z"/><path fill-rule="evenodd" clip-rule="evenodd" d="M302.4 101.8c0 1.8-1.5 3.2-3.2 3.2-1.8 0-3.2-1.4-3.2-3.2-.1-.5-.1-1-.1-1.5.5-21.9 3.5-43.1 9.4-62.9.3-1.4 1.6-2.5 3.1-2.5 1.8 0 3.2 1.5 3.2 3.2 0 .3 0 .5-.1.8-5.4 20.1-8.5 41.2-9.1 62.9z"/></g></svg>